<svg width="445" height="297" viewBox="0 0 445 297" fill="none" xmlns="http://www.w3.org/2000/svg">
<g clip-path="url(#clip0_93_24487)" filter="url(#filter0_d_93_24487)">
<path d="M412.999 0.234253H0.175781V265H412.999V0.234253Z" fill="#FCFFFF"/>
<path d="M401.195 33.4428H11.9805V249.337H401.195V33.4428Z" fill="white"/>
<path d="M412.823 0H0V17.5632H412.823V0Z" fill="#56546B"/>
<path d="M367.759 57.068H226.086V194.01H367.759V57.068Z" fill="#FCFFFF"/>
<path d="M13.0318 12.2342C14.827 12.2342 16.2823 10.7769 16.2823 8.97912C16.2823 7.18137 14.827 5.724 13.0318 5.724C11.2366 5.724 9.78125 7.18137 9.78125 8.97912C9.78125 10.7769 11.2366 12.2342 13.0318 12.2342Z" fill="white"/>
<path d="M25.3716 12.2342C27.1668 12.2342 28.6221 10.7769 28.6221 8.97912C28.6221 7.18137 27.1668 5.724 25.3716 5.724C23.5764 5.724 22.1211 7.18137 22.1211 8.97912C22.1211 10.7769 23.5764 12.2342 25.3716 12.2342Z" fill="white"/>
<path d="M37.7115 12.2342C39.5067 12.2342 40.962 10.7769 40.962 8.97912C40.962 7.18137 39.5067 5.724 37.7115 5.724C35.9162 5.724 34.4609 7.18137 34.4609 8.97912C34.4609 10.7769 35.9162 12.2342 37.7115 12.2342Z" fill="white"/>
<path d="M79.6894 56.7865H41.9102V94.6194H79.6894V56.7865Z" fill="#56546B"/>
<path d="M132.228 57.0033H94.4492V94.8362H132.228V57.0033Z" fill="#FCFFFF"/>
<path d="M132.377 108.972H94.5977V234.858H132.377V108.972Z" fill="#56546B"/>
<path d="M78.6582 108.691H40.8789V173.099H78.6582V108.691Z" fill="#FCFFFF"/>
<path d="M295.967 78.6986C289.745 68.1741 277.442 67.6839 277.442 67.6839C277.442 67.6839 265.451 66.1485 257.759 82.1769C250.589 97.1171 240.694 111.541 256.167 115.039L258.962 106.329L260.693 115.687C262.896 115.846 265.106 115.884 267.313 115.801C283.882 115.265 299.661 115.958 299.153 110.005C298.476 102.089 301.951 88.8248 295.967 78.6986Z" fill="#2F2E41"/>
<path d="M253.506 178.635L232.53 193.221C232.53 193.221 220.294 206.058 229.034 206.058C237.774 206.058 241.27 194.971 241.27 194.971L268.073 183.302L253.506 178.635Z" fill="#FFB8B8"/>
<path d="M261.951 121.745C261.951 121.745 243.597 178.637 249.424 181.553C255.25 184.469 268.069 186.221 268.069 186.221L261.951 121.745Z" fill="#2F2E41"/>
<path opacity="0.1" d="M261.951 121.745C261.951 121.745 243.597 178.637 249.424 181.553C255.25 184.469 268.069 186.221 268.069 186.221L261.951 121.745Z" fill="black"/>
<path d="M319.653 193.516H278.336L307.691 178.637C308.338 179.057 308.959 179.517 309.55 180.014C313.902 183.684 317.359 188.302 319.653 193.516Z" fill="#2F2E41"/>
<path d="M273.606 107.157C281.973 107.157 288.755 100.365 288.755 91.9863C288.755 83.6078 281.973 76.8157 273.606 76.8157C265.24 76.8157 258.457 83.6078 258.457 91.9863C258.457 100.365 265.24 107.157 273.606 107.157Z" fill="#FFB8B8"/>
<path d="M273.315 104.531C273.315 104.531 276.811 115.618 273.315 119.703C269.819 123.787 292.543 113.868 292.543 113.868C292.543 113.868 284.386 102.198 286.716 96.9462L273.315 104.531Z" fill="#FFB8B8"/>
<path d="M306.877 155.185L305.654 163.173C305.654 163.173 306.272 164.987 307.023 167.631C308.002 171.079 309.208 175.938 309.552 180.013C309.907 184.144 309.371 187.47 306.819 187.68C303.16 187.983 301.255 190.206 299.355 193.515H257.204C257.315 191.694 257.449 189.804 257.606 187.861C257.694 186.694 257.79 185.511 257.896 184.313C258.013 182.936 262.14 157.07 259.038 151.503C252.63 140.009 260.786 133.415 260.786 133.415C260.786 133.415 261.951 124.663 261.951 121.745C261.951 119.458 270.901 116.815 274.77 115.776C275.021 115.712 275.242 115.648 275.445 115.601C276.115 115.427 276.517 115.327 276.517 115.327L279.576 114.071C279.576 114.071 288.17 112.409 288.754 111.241C289.126 110.738 289.648 110.366 290.245 110.179C291.475 109.654 293.042 109.28 293.415 108.907C293.948 108.293 294.429 107.638 294.854 106.946C295.972 105.662 297.478 104.78 299.143 104.434C305.401 102.853 314.391 105.987 314.391 105.987L311.245 126.555L306.877 155.185Z" fill="#2F2E41"/>
<path d="M325.174 142.459L304.198 157.044C304.198 157.044 291.962 169.881 300.702 169.881C309.442 169.881 312.936 158.797 312.936 158.797L339.738 147.127L325.174 142.459Z" fill="#FFB8B8"/>
<path d="M289.136 77.684L276.979 71.309L269.354 72.4922C266.652 72.9122 264.138 74.1362 262.14 76.0051C260.141 77.874 258.75 80.3015 258.146 82.9723L256.719 89.2788L265.365 88.9455L267.781 83.3012V88.8523L271.771 88.6988L274.086 79.7129L275.533 89.2783L289.716 88.9885L289.136 77.684Z" fill="#2F2E41"/>
<path d="M310.315 107.157L314.393 105.99C314.393 105.99 355.763 122.912 354.598 137.499C353.432 152.086 355.18 152.084 348.188 152.67C341.196 153.255 320.805 146.251 321.384 145.084C321.962 143.918 326.045 138.081 326.045 138.081L310.312 125.828L310.315 107.157Z" fill="#2F2E41"/>
<path d="M288.757 94.3208C290.044 94.3208 291.087 93.2758 291.087 91.9867C291.087 90.6976 290.044 89.6526 288.757 89.6526C287.469 89.6526 286.426 90.6976 286.426 91.9867C286.426 93.2758 287.469 94.3208 288.757 94.3208Z" fill="#FFB8B8"/>
<path d="M367.759 216.021H226.086V234.937H367.759V216.021Z" fill="#FCFFFF"/>
<path d="M78.6582 187.313H40.8789V234.578H78.6582V187.313Z" fill="#FCFFFF"/>
<path d="M186.096 57.2617H148.316V173.099H186.096V57.2617Z" fill="#FCFFFF"/>
<path d="M185.947 187.428H148.168V234.72H185.947V187.428Z" fill="#FCFFFF"/>
</g>
<defs>
<filter id="filter0_d_93_24487" x="0" y="0" width="445" height="297" filterUnits="userSpaceOnUse" color-interpolation-filters="sRGB">
<feFlood flood-opacity="0" result="BackgroundImageFix"/>
<feColorMatrix in="SourceAlpha" type="matrix" values="0 0 0 0 0 0 0 0 0 0 0 0 0 0 0 0 0 0 127 0" result="hardAlpha"/>
<feOffset dx="32" dy="32"/>
<feComposite in2="hardAlpha" operator="out"/>
<feColorMatrix type="matrix" values="0 0 0 0 0.0450025 0 0 0 0 0.00494792 0 0 0 0 0.153385 0 0 0 1 0"/>
<feBlend mode="normal" in2="BackgroundImageFix" result="effect1_dropShadow_93_24487"/>
<feBlend mode="normal" in="SourceGraphic" in2="effect1_dropShadow_93_24487" result="shape"/>
</filter>
<clipPath id="clip0_93_24487">
<rect width="413" height="265" fill="white"/>
</clipPath>
</defs>
</svg>
