<svg width="12" height="14" viewBox="0 0 12 14" fill="none" xmlns="http://www.w3.org/2000/svg">
<path d="M6.30216 0C7.03597 0 7.81295 0 8.54676 0C8.58993 0.869226 8.89209 1.78191 9.53957 2.43383C10.1871 3.08575 11.0935 3.38998 12 3.4769V5.82382C11.1799 5.78035 10.3165 5.60651 9.58273 5.25882C9.23741 5.12843 8.93525 4.91113 8.63309 4.73728C8.63309 6.43227 8.63309 8.12727 8.63309 9.82226C8.58993 10.648 8.33094 11.4303 7.85611 12.1257C7.1223 13.2557 5.78417 13.9511 4.44604 13.9945C3.6259 14.038 2.80576 13.8207 2.11511 13.3861C0.94964 12.6038 0.129496 11.3434 0 9.9961C0 9.69187 0 9.4311 0 9.12688C0.0863309 8.04034 0.647482 6.95381 1.46763 6.25843C2.41727 5.43266 3.7554 5.04151 5.00719 5.25882C5.00719 6.12804 4.96403 6.95381 4.96403 7.82304C4.40288 7.64919 3.71223 7.69265 3.23741 8.04034C2.89209 8.25765 2.58993 8.6488 2.46043 9.03995C2.33094 9.34418 2.3741 9.64841 2.3741 9.95264C2.5036 10.9088 3.41007 11.6911 4.40288 11.6042C5.05036 11.6042 5.65468 11.213 6 10.6915C6.1295 10.5176 6.21583 10.3003 6.21583 10.083C6.25899 9.03995 6.25899 7.99688 6.25899 6.99727C6.30216 4.65036 6.30216 2.34691 6.30216 0Z" fill="white"/>
</svg>
