<svg width="17" height="14" viewBox="0 0 17 14" fill="none" xmlns="http://www.w3.org/2000/svg">
<path d="M17 1.65632C16.3747 1.93749 15.7031 2.12756 14.997 2.213C15.7176 1.77569 16.2697 1.08271 16.5304 0.257952C15.8458 0.66998 15.0966 0.960049 14.3153 1.11556C13.6795 0.428779 12.7728 0 11.7697 0C9.84431 0 8.28281 1.58169 8.28281 3.53391C8.28281 3.81052 8.31355 4.08038 8.37265 4.33947C5.47423 4.19186 2.90459 2.78497 1.1846 0.647183C0.88426 1.16929 0.712351 1.77633 0.712351 2.42402C0.712351 3.64991 1.3281 4.73153 2.26372 5.36512C1.70985 5.34773 1.16813 5.19623 0.683857 4.9233V4.96795C0.683857 6.68033 1.88578 8.10817 3.48127 8.4329C3.18818 8.51427 2.8806 8.55679 2.56239 8.55679C2.33741 8.55679 2.11914 8.53521 1.9059 8.49457C2.3497 9.89809 3.63765 10.9197 5.16327 10.9486C3.96972 11.8967 2.46579 12.4619 0.832359 12.4619C0.55102 12.4619 0.272967 12.4449 0 12.4115C1.54358 13.4145 3.37634 14 5.34585 14C11.7602 14 15.2683 8.61508 15.2683 3.94522C15.2683 3.79191 15.2649 3.63974 15.2576 3.48812C15.9411 2.98716 16.5311 2.36688 17 1.65632Z" fill="white"/>
</svg>
