<svg width="1601" height="110" viewBox="0 0 1601 110" fill="none" xmlns="http://www.w3.org/2000/svg">
  <path opacity="0.5" d="M1601 109.989V94.1793C1586 94.1793 1479.75 73.3993 1453 58.2093C1384 18.9893 1318.5 16.5088 1301.37 18.4093C1260 23 1221.2 44.4793 1181.74 58.2093C1127.14 77.2093 1068.69 104.209 1007.19 107.879C958.812 110.729 912.597 98.4593 875.64 76.3193C833.254 50.9293 792.495 14.3193 737.381 3.31926C683.427 -7.47074 628.846 10.0093 578.441 27.5993C528.036 45.1893 478.165 66.5993 422.451 70.6493C342.761 76.4993 306.706 48.46 232.5 32.5C192.208 23.84 144.336 39.8842 107 61.5C78.5 78 70.5 89 0 94.1751V109.989L1601 109.989Z" fill="white"/>
</svg>
