<svg width="2752" height="110" viewBox="0 0 2752 110" fill="none" xmlns="http://www.w3.org/2000/svg">
<path opacity="0.5" d="M2752 110V94.19C2722.19 73.08 2688.61 53.14 2642.63 37.95C2524.02 -1.27 2373.6 -1 2236.96 18.42C2165.53 28.57 2099.16 44.49 2031.32 58.22C1937.48 77.22 1837.01 104.22 1731.28 107.89C1648.13 110.74 1568.69 98.47 1505.16 76.33C1432.3 50.94 1362.24 14.33 1267.5 3.33C1174.76 -7.46 1080.94 10.02 994.297 27.61C907.655 45.2 821.931 66.61 726.161 70.66C589.18 76.51 466.372 47.78 338.817 31.82C269.558 23.16 203.51 25.65 139.091 39.32C87.6511 50.21 29.0105 66.25 0 88.56V110L2752 110Z" fill="white"/>
</svg>
